MerriweatherSans-Light.ufo
<glyph name="percent" format="1">
  <advance width="1944"/>
  <unicode hex="0025"/>
  <outline>
    <contour>
      <point x="431" y="686" type="curve" smooth="yes"/>
      <point x="627" y="691"/>
      <point x="806" y="832"/>
      <point x="806" y="1091" type="curve" smooth="yes"/>
      <point x="806" y="1315"/>
      <point x="701" y="1498"/>
      <point x="460" y="1492" type="curve" smooth="yes"/>
      <point x="264" y="1486"/>
      <point x="85" y="1344"/>
      <point x="85" y="1083" type="curve" smooth="yes"/>
      <point x="85" y="868"/>
      <point x="213" y="682"/>
    </contour>
    <contour>
      <point x="567" y="0" type="line"/>
      <point x="712" y="0" type="line"/>
      <point x="1370" y="1530" type="line"/>
      <point x="1225" y="1530" type="line"/>
    </contour>
    <contour>
      <point x="441" y="798" type="curve" smooth="yes"/>
      <point x="311" y="797"/>
      <point x="234" y="926"/>
      <point x="234" y="1089" type="curve" smooth="yes"/>
      <point x="234" y="1268"/>
      <point x="322" y="1378"/>
      <point x="451" y="1380" type="curve" smooth="yes"/>
      <point x="586" y="1382"/>
      <point x="657" y="1260"/>
      <point x="657" y="1086" type="curve" smooth="yes"/>
      <point x="657" y="905"/>
      <point x="569" y="800"/>
    </contour>
    <contour>
      <point x="1484" y="56" type="curve" smooth="yes"/>
      <point x="1679" y="61"/>
      <point x="1858" y="201"/>
      <point x="1858" y="461" type="curve" smooth="yes"/>
      <point x="1858" y="684"/>
      <point x="1754" y="868"/>
      <point x="1513" y="861" type="curve" smooth="yes"/>
      <point x="1317" y="855"/>
      <point x="1138" y="713"/>
      <point x="1138" y="452" type="curve" smooth="yes"/>
      <point x="1138" y="237"/>
      <point x="1266" y="51"/>
    </contour>
    <contour>
      <point x="1493" y="168" type="curve" smooth="yes"/>
      <point x="1364" y="167"/>
      <point x="1287" y="295"/>
      <point x="1287" y="458" type="curve" smooth="yes"/>
      <point x="1287" y="638"/>
      <point x="1374" y="748"/>
      <point x="1504" y="750" type="curve" smooth="yes"/>
      <point x="1639" y="752"/>
      <point x="1709" y="629"/>
      <point x="1709" y="456" type="curve" smooth="yes"/>
      <point x="1709" y="275"/>
      <point x="1622" y="169"/>
    </contour>
  </outline>
</glyph>
<glyph name="parenleft" format="1">
  <advance width="848"/>
  <unicode hex="0028"/>
  <outline>
    <contour>
      <point x="598" y="-327" type="curve"/>
      <point x="713" y="-270" type="line"/>
      <point x="620" y="-203"/>
      <point x="292" y="106"/>
      <point x="305" y="724" type="curve" smooth="yes"/>
      <point x="317" y="1298"/>
      <point x="636" y="1619"/>
      <point x="713" y="1675" type="curve"/>
      <point x="598" y="1732" type="line"/>
      <point x="506" y="1681"/>
      <point x="142" y="1299"/>
      <point x="142" y="724" type="curve" smooth="yes"/>
      <point x="142" y="51"/>
      <point x="511" y="-272"/>
    </contour>
  </outline>
</glyph>
<glyph name="eight" format="1">
  <advance width="1297"/>
  <unicode hex="0038"/>
  <outline>
    <contour>
      <point x="667" y="-16" type="curve" smooth="yes"/>
      <point x="927" y="-16"/>
      <point x="1165" y="113"/>
      <point x="1163" y="391" type="curve" smooth="yes"/>
      <point x="1160" y="808"/>
      <point x="371" y="820"/>
      <point x="371" y="1207" type="curve" smooth="yes"/>
      <point x="371" y="1360"/>
      <point x="500" y="1448"/>
      <point x="666" y="1448" type="curve" smooth="yes"/>
      <point x="846" y="1448"/>
      <point x="953" y="1343"/>
      <point x="949" y="1195" type="curve" smooth="yes"/>
      <point x="947" y="1039"/>
      <point x="834" y="900"/>
      <point x="684" y="850" type="curve"/>
      <point x="776" y="778" type="line"/>
      <point x="1000" y="872"/>
      <point x="1102" y="1056"/>
      <point x="1102" y="1217" type="curve" smooth="yes"/>
      <point x="1102" y="1428"/>
      <point x="922" y="1565"/>
      <point x="671" y="1565" type="curve" smooth="yes"/>
      <point x="429" y="1565"/>
      <point x="217" y="1445"/>
      <point x="217" y="1197" type="curve" smooth="yes"/>
      <point x="217" y="708"/>
      <point x="998" y="741"/>
      <point x="998" y="371" type="curve" smooth="yes"/>
      <point x="998" y="202"/>
      <point x="849" y="102"/>
      <point x="674" y="102" type="curve" smooth="yes"/>
      <point x="442" y="102"/>
      <point x="318" y="214"/>
      <point x="318" y="398" type="curve" smooth="yes"/>
      <point x="318" y="562"/>
      <point x="455" y="693"/>
      <point x="624" y="749" type="curve"/>
      <point x="523" y="819" type="line"/>
      <point x="272" y="720"/>
      <point x="157" y="552"/>
      <point x="157" y="385" type="curve" smooth="yes"/>
      <point x="157" y="96"/>
      <point x="421" y="-16"/>
    </contour>
  </outline>
</glyph>
<glyph name="question" format="1">
  <advance width="1047"/>
  <unicode hex="003F"/>
  <outline>
    <contour>
      <point x="387" y="465" type="curve"/>
      <point x="514" y="466" type="line"/>
      <point x="483" y="558"/>
      <point x="449" y="648"/>
      <point x="457" y="742" type="curve" smooth="yes"/>
      <point x="468" y="933"/>
      <point x="890" y="971"/>
      <point x="926" y="1281" type="curve" smooth="yes"/>
      <point x="968" y="1565"/>
      <point x="804" y="1837"/>
      <point x="343" y="1837" type="curve" smooth="yes"/>
      <point x="252" y="1837"/>
      <point x="153" y="1811"/>
      <point x="134" y="1795" type="curve"/>
      <point x="134" y="1672" type="line"/>
      <point x="163" y="1684"/>
      <point x="227" y="1696"/>
      <point x="317" y="1696" type="curve" smooth="yes"/>
      <point x="635" y="1696"/>
      <point x="808" y="1537"/>
      <point x="759" y="1272" type="curve" smooth="yes"/>
      <point x="735" y="1051"/>
      <point x="289" y="982"/>
      <point x="295" y="759" type="curve" smooth="yes"/>
      <point x="297" y="644"/>
      <point x="347" y="518"/>
    </contour>
    <contour>
      <point x="497" y="-16" type="curve" smooth="yes"/>
      <point x="561" y="-16"/>
      <point x="619" y="41"/>
      <point x="617" y="122" type="curve" smooth="yes"/>
      <point x="615" y="188"/>
      <point x="579" y="242"/>
      <point x="508" y="242" type="curve" smooth="yes"/>
      <point x="447" y="242"/>
      <point x="387" y="181"/>
      <point x="389" y="105" type="curve" smooth="yes"/>
      <point x="391" y="32"/>
      <point x="441" y="-16"/>
    </contour>
  </outline>
</glyph>
<glyph name="B" format="1">
  <advance width="1350"/>
  <unicode hex="0042"/>
  <outline>
    <contour>
      <point x="206" y="0" type="line"/>
      <point x="295" y="0" type="line"/>
      <point x="395" y="-4"/>
      <point x="531" y="-14"/>
      <point x="641" y="-14" type="curve" smooth="yes"/>
      <point x="1087" y="-14"/>
      <point x="1241" y="164"/>
      <point x="1241" y="453" type="curve" smooth="yes"/>
      <point x="1241" y="652"/>
      <point x="1078" y="805"/>
      <point x="892" y="814" type="curve"/>
      <point x="1071" y="858"/>
      <point x="1136" y="1034"/>
      <point x="1136" y="1179" type="curve" smooth="yes"/>
      <point x="1136" y="1403"/>
      <point x="972" y="1535"/>
      <point x="638" y="1535" type="curve" smooth="yes"/>
      <point x="499" y="1535"/>
      <point x="425" y="1522"/>
      <point x="298" y="1522" type="curve"/>
      <point x="206" y="1523" type="line"/>
    </contour>
    <contour>
      <point x="374" y="848" type="curve"/>
      <point x="374" y="1403" type="line"/>
      <point x="429" y="1411"/>
      <point x="551" y="1415"/>
      <point x="606" y="1415" type="curve" smooth="yes"/>
      <point x="823" y="1415"/>
      <point x="972" y="1346"/>
      <point x="972" y="1155" type="curve" smooth="yes"/>
      <point x="972" y="972"/>
      <point x="878" y="856"/>
      <point x="721" y="844" type="curve" smooth="yes"/>
      <point x="646" y="844"/>
      <point x="439" y="839"/>
    </contour>
    <contour>
      <point x="374" y="130" type="curve"/>
      <point x="374" y="719" type="line"/>
      <point x="425" y="725"/>
      <point x="627" y="723"/>
      <point x="703" y="723" type="curve" smooth="yes"/>
      <point x="932" y="719"/>
      <point x="1069" y="635"/>
      <point x="1069" y="433" type="curve" smooth="yes"/>
      <point x="1069" y="193"/>
      <point x="921" y="110"/>
      <point x="660" y="110" type="curve" smooth="yes"/>
      <point x="567" y="110"/>
      <point x="458" y="114"/>
    </contour>
    <contour>
      <point x="713" y="-170" type="move" name="btm"/>
    </contour>
    <contour>
      <point x="647" y="1700" type="move" name="top"/>
    </contour>
  </outline>
</glyph>
<glyph name="M" format="1">
  <advance width="1925"/>
  <unicode hex="004D"/>
  <outline>
    <contour>
      <point x="149" y="-1" type="line"/>
      <point x="313" y="0" type="line"/>
      <point x="404" y="947" type="line"/>
      <point x="442" y="1397" type="line"/>
      <point x="578" y="947" type="line"/>
      <point x="917" y="-15" type="line"/>
      <point x="1010" y="-15" type="line"/>
      <point x="1333" y="947" type="line"/>
      <point x="1457" y="1397" type="line"/>
      <point x="1501" y="947" type="line"/>
      <point x="1607" y="0" type="line"/>
      <point x="1778" y="0" type="line"/>
      <point x="1582" y="1522" type="line"/>
      <point x="1354" y="1522" type="line"/>
      <point x="1036" y="533" type="line"/>
      <point x="963" y="247" type="line"/>
      <point x="888" y="533" type="line"/>
      <point x="551" y="1522" type="line"/>
      <point x="311" y="1522" type="line"/>
    </contour>
    <contour>
      <point x="965" y="-170" type="move" name="btm"/>
    </contour>
    <contour>
      <point x="963" y="1700" type="move" name="top"/>
    </contour>
  </outline>
</glyph>
<glyph name="R" format="1">
  <advance width="1359"/>
  <unicode hex="0052"/>
  <outline>
    <contour>
      <point x="375" y="0" type="line"/>
      <point x="375" y="663" type="line"/>
      <point x="576" y="661"/>
      <point x="698" y="660"/>
      <point x="797" y="673" type="curve" smooth="yes"/>
      <point x="1029" y="705"/>
      <point x="1188" y="854"/>
      <point x="1188" y="1116" type="curve" smooth="yes"/>
      <point x="1188" y="1425"/>
      <point x="975" y="1536"/>
      <point x="666" y="1536" type="curve" smooth="yes"/>
      <point x="535" y="1536"/>
      <point x="401" y="1524"/>
      <point x="306" y="1523" type="curve" smooth="yes"/>
      <point x="295" y="1523"/>
      <point x="206" y="1522"/>
      <point x="206" y="1522" type="curve"/>
      <point x="206" y="0" type="line"/>
    </contour>
    <contour>
      <point x="375" y="783" type="curve"/>
      <point x="375" y="1395" type="line"/>
      <point x="437" y="1406"/>
      <point x="548" y="1411"/>
      <point x="639" y="1411" type="curve" smooth="yes"/>
      <point x="899" y="1411"/>
      <point x="1015" y="1325"/>
      <point x="1015" y="1108" type="curve" smooth="yes"/>
      <point x="1014" y="886"/>
      <point x="873" y="779"/>
      <point x="659" y="777" type="curve" smooth="yes"/>
      <point x="601" y="777"/>
      <point x="424" y="778"/>
    </contour>
    <contour>
      <point x="1102" y="0" type="curve"/>
      <point x="1294" y="0" type="line"/>
      <point x="1276" y="28"/>
      <point x="1257" y="63"/>
      <point x="1236" y="102" type="curve" smooth="yes"/>
      <point x="1129" y="296"/>
      <point x="1011" y="653"/>
      <point x="842" y="707" type="curve"/>
      <point x="740" y="719" type="line"/>
      <point x="669" y="667" type="line"/>
      <point x="848" y="643"/>
      <point x="959" y="286"/>
      <point x="1048" y="102" type="curve" smooth="yes"/>
      <point x="1076" y="44"/>
      <point x="1086" y="21"/>
    </contour>
    <contour>
      <point x="688" y="-170" type="move" name="btm"/>
    </contour>
    <contour>
      <point x="702" y="1700" type="move" name="top"/>
    </contour>
  </outline>
</glyph>
<glyph name="asciicircum" format="1">
  <advance width="1363"/>
  <unicode hex="005E"/>
  <outline>
    <contour>
      <point x="350" y="509" type="line"/>
      <point x="688" y="1367" type="line"/>
      <point x="673" y="1367" type="line"/>
      <point x="1014" y="509" type="line"/>
      <point x="1174" y="509" type="line"/>
      <point x="757" y="1531" type="line"/>
      <point x="603" y="1531" type="line"/>
      <point x="189" y="509" type="line"/>
    </contour>
  </outline>
</glyph>
<glyph name="a" format="1">
  <advance width="1145"/>
  <unicode hex="0061"/>
  <outline>
    <contour>
      <point x="457" y="-16" type="curve" smooth="yes"/>
      <point x="621" y="-16"/>
      <point x="752" y="52"/>
      <point x="813" y="108" type="curve"/>
      <point x="839" y="176" type="line"/>
      <point x="802" y="209" type="line"/>
      <point x="778" y="182"/>
      <point x="651" y="109"/>
      <point x="506" y="109" type="curve" smooth="yes"/>
      <point x="342" y="109"/>
      <point x="275" y="194"/>
      <point x="275" y="314" type="curve" smooth="yes"/>
      <point x="275" y="415"/>
      <point x="334" y="479"/>
      <point x="448" y="522" type="curve" smooth="yes"/>
      <point x="545" y="562"/>
      <point x="719" y="575"/>
      <point x="801" y="575" type="curve"/>
      <point x="838" y="635" type="line"/>
      <point x="801" y="682" type="line"/>
      <point x="682" y="682"/>
      <point x="490" y="665"/>
      <point x="356" y="615" type="curve" smooth="yes"/>
      <point x="197" y="556"/>
      <point x="110" y="451"/>
      <point x="110" y="301" type="curve" smooth="yes"/>
      <point x="110" y="103"/>
      <point x="255" y="-16"/>
    </contour>
    <contour>
      <point x="967" y="-16" type="line"/>
      <point x="967" y="807" type="line" smooth="yes"/>
      <point x="967" y="1093"/>
      <point x="810" y="1157"/>
      <point x="578" y="1157" type="curve" smooth="yes"/>
      <point x="393" y="1157"/>
      <point x="198" y="1069"/>
      <point x="159" y="1043" type="curve"/>
      <point x="200" y="933" type="line"/>
      <point x="260" y="976"/>
      <point x="419" y="1030"/>
      <point x="535" y="1030" type="curve" smooth="yes"/>
      <point x="705" y="1030"/>
      <point x="801" y="998"/>
      <point x="801" y="814" type="curve" smooth="yes"/>
      <point x="801" y="163" type="line"/>
      <point x="810" y="162" type="line"/>
      <point x="811" y="64" type="line" smooth="yes"/>
      <point x="811" y="-11"/>
      <point x="841" y="-16"/>
      <point x="899" y="-16" type="curve" smooth="yes"/>
    </contour>
    <contour>
      <point x="535" y="-170" type="move" name="btm"/>
    </contour>
    <contour>
      <point x="582" y="1700" type="move" name="top"/>
    </contour>
  </outline>
</glyph>
<glyph name="m" format="1">
  <advance width="1978"/>
  <unicode hex="006D"/>
  <outline>
    <contour>
      <point x="193" y="0" type="line"/>
      <point x="360" y="0" type="line"/>
      <point x="360" y="878" type="line"/>
      <point x="450" y="952"/>
      <point x="593" y="1012"/>
      <point x="695" y="1016" type="curve" smooth="yes"/>
      <point x="882" y="1025"/>
      <point x="919" y="924"/>
      <point x="919" y="697" type="curve" smooth="yes"/>
      <point x="919" y="0" type="line"/>
      <point x="1086" y="0" type="line"/>
      <point x="1086" y="708" type="line" smooth="yes"/>
      <point x="1086" y="1058"/>
      <point x="992" y="1161"/>
      <point x="762" y="1157" type="curve" smooth="yes"/>
      <point x="604" y="1154"/>
      <point x="427" y="1060"/>
      <point x="343" y="993" type="curve"/>
      <point x="342" y="1139" type="line"/>
      <point x="193" y="1139" type="line"/>
    </contour>
    <contour>
      <point x="1070" y="892" type="line"/>
      <point x="1155" y="952"/>
      <point x="1286" y="1015"/>
      <point x="1395" y="1017" type="curve" smooth="yes"/>
      <point x="1595" y="1023"/>
      <point x="1626" y="907"/>
      <point x="1626" y="695" type="curve" smooth="yes"/>
      <point x="1626" y="0" type="line"/>
      <point x="1792" y="0" type="line"/>
      <point x="1792" y="703" type="line" smooth="yes"/>
      <point x="1792" y="1042"/>
      <point x="1699" y="1160"/>
      <point x="1458" y="1157" type="curve" smooth="yes"/>
      <point x="1289" y="1155"/>
      <point x="1116" y="1063"/>
      <point x="1033" y="996" type="curve"/>
    </contour>
    <contour>
      <point x="999" y="-170" type="move" name="btm"/>
    </contour>
    <contour>
      <point x="1003" y="1700" type="move" name="top"/>
    </contour>
  </outline>
</glyph>
<glyph name="r" format="1">
  <advance width="826"/>
  <unicode hex="0072"/>
  <outline>
    <contour>
      <point x="342" y="867" type="line"/>
      <point x="395" y="924"/>
      <point x="514" y="1009"/>
      <point x="654" y="1009" type="curve" smooth="yes"/>
      <point x="737" y="1009"/>
      <point x="773" y="996"/>
      <point x="792" y="986" type="curve"/>
      <point x="792" y="1143" type="line"/>
      <point x="773" y="1151"/>
      <point x="736" y="1156"/>
      <point x="684" y="1156" type="curve" smooth="yes"/>
      <point x="527" y="1156"/>
      <point x="365" y="1034"/>
      <point x="330" y="977" type="curve"/>
    </contour>
    <contour>
      <point x="185" y="0" type="line"/>
      <point x="352" y="0" type="line"/>
      <point x="352" y="906" type="line"/>
      <point x="338" y="976" type="line"/>
      <point x="327" y="1139" type="line"/>
      <point x="185" y="1139" type="line"/>
    </contour>
    <contour>
      <point x="264" y="-170" type="move" name="btm"/>
    </contour>
    <contour>
      <point x="490" y="1700" type="move" name="top"/>
    </contour>
  </outline>
</glyph>
<glyph name="macron" format="1">
  <advance width="643"/>
  <unicode hex="00AF"/>
  <outline>
    <contour>
      <point x="50" y="1452" type="line"/>
      <point x="593" y="1452" type="line"/>
      <point x="593" y="1576" type="line"/>
      <point x="50" y="1576" type="line"/>
    </contour>
    <contour>
      <point x="320" y="1700" type="move" name="_top"/>
    </contour>
  </outline>
</glyph>
<glyph name="Hbar" format="1">
  <advance width="1550"/>
  <unicode hex="0126"/>
  <outline>
    <contour>
      <point x="206" y="0" type="line"/>
      <point x="375" y="0" type="line"/>
      <point x="375" y="703" type="line"/>
      <point x="1175" y="703" type="line"/>
      <point x="1175" y="0" type="line"/>
      <point x="1344" y="0" type="line"/>
      <point x="1344" y="1522" type="line"/>
      <point x="1175" y="1522" type="line"/>
      <point x="1175" y="833" type="line"/>
      <point x="375" y="833" type="line"/>
      <point x="375" y="1522" type="line"/>
      <point x="206" y="1522" type="line"/>
    </contour>
    <contour>
      <point x="11" y="1085" type="line"/>
      <point x="1559" y="1085" type="line"/>
      <point x="1559" y="1193" type="line"/>
      <point x="11" y="1193" type="line"/>
    </contour>
  </outline>
</glyph>
<glyph name="kgreenlandic" format="1">
  <advance width="1171"/>
  <unicode hex="0138"/>
  <outline>
    <contour>
      <point x="1107" y="1139" type="line"/>
      <point x="915" y="1139" type="line"/>
      <point x="315" y="491" type="line"/>
      <point x="359" y="465" type="line"/>
      <point x="364" y="640" type="line"/>
      <point x="364" y="1140" type="line"/>
      <point x="197" y="1140" type="line"/>
      <point x="199" y="0" type="line"/>
      <point x="366" y="0" type="line"/>
      <point x="366" y="200" type="line"/>
      <point x="361" y="382" type="line"/>
      <point x="343" y="339" type="line"/>
    </contour>
    <contour>
      <point x="534" y="575" type="line"/>
      <point x="955" y="0" type="line"/>
      <point x="1146" y="0" type="line"/>
      <point x="648" y="680" type="line"/>
    </contour>
  </outline>
</glyph>
<glyph name="circumflex" format="1">
  <advance width="833"/>
  <unicode hex="02C6"/>
  <outline>
    <contour>
      <point x="145" y="1302" type="line"/>
      <point x="419" y="1565" type="line"/>
      <point x="682" y="1302" type="line"/>
      <point x="785" y="1346" type="line"/>
      <point x="494" y="1692" type="line"/>
      <point x="345" y="1692" type="line"/>
      <point x="48" y="1345" type="line"/>
    </contour>
    <contour>
      <point x="419" y="1700" type="move" name="_top"/>
    </contour>
  </outline>
</glyph>
<glyph name="breve" format="1">
  <advance width="775"/>
  <unicode hex="02D8"/>
  <outline>
    <contour>
      <point x="387" y="1335" type="curve" smooth="yes"/>
      <point x="598" y="1335"/>
      <point x="738" y="1516"/>
      <point x="725" y="1694" type="curve"/>
      <point x="611" y="1694" type="line"/>
      <point x="611" y="1645"/>
      <point x="580" y="1465"/>
      <point x="388" y="1465" type="curve" smooth="yes"/>
      <point x="192" y="1465"/>
      <point x="168" y="1642"/>
      <point x="167" y="1694" type="curve"/>
      <point x="49" y="1694" type="line"/>
      <point x="37" y="1516"/>
      <point x="166" y="1335"/>
    </contour>
    <contour>
      <point x="387" y="1700" type="move" name="_top"/>
    </contour>
  </outline>
</glyph>
<glyph name="ring" format="1">
  <advance width="713"/>
  <unicode hex="02DA"/>
  <outline>
    <contour>
      <point x="353" y="1332" type="curve" smooth="yes"/>
      <point x="517" y="1332"/>
      <point x="664" y="1416"/>
      <point x="666" y="1600" type="curve" smooth="yes"/>
      <point x="667" y="1764"/>
      <point x="547" y="1858"/>
      <point x="358" y="1858" type="curve" smooth="yes"/>
      <point x="207" y="1858"/>
      <point x="50" y="1785"/>
      <point x="47" y="1601" type="curve" smooth="yes"/>
      <point x="44" y="1439"/>
      <point x="163" y="1332"/>
    </contour>
    <contour>
      <point x="354" y="1429" type="curve" smooth="yes"/>
      <point x="235" y="1431"/>
      <point x="165" y="1499"/>
      <point x="166" y="1601" type="curve" smooth="yes"/>
      <point x="167" y="1722"/>
      <point x="264" y="1763"/>
      <point x="357" y="1763" type="curve" smooth="yes"/>
      <point x="469" y="1762"/>
      <point x="548" y="1704"/>
      <point x="548" y="1599" type="curve" smooth="yes"/>
      <point x="548" y="1480"/>
      <point x="462" y="1429"/>
    </contour>
    <contour>
      <point x="356" y="1700" type="move" name="_top"/>
    </contour>
  </outline>
</glyph>
<glyph name="guilsinglleft" format="1">
  <advance width="1204"/>
  <unicode hex="2039"/>
  <outline>
    <contour>
      <point x="245" y="542" type="line"/>
      <point x="898" y="106" type="line"/>
      <point x="942" y="227" type="line"/>
      <point x="368" y="644" type="line"/>
      <point x="368" y="586" type="line"/>
      <point x="942" y="1006" type="line"/>
      <point x="898" y="1131" type="line"/>
      <point x="245" y="683" type="line"/>
    </contour>
  </outline>
</glyph>
<glyph name="guarani" format="1">
  <advance width="1487"/>
  <unicode hex="20B2"/>
  <outline>
    <contour>
      <point x="110" y="750" type="curve" smooth="yes"/>
      <point x="110" y="342"/>
      <point x="331" y="32"/>
      <point x="712" y="-11" type="curve"/>
      <point x="710" y="-258" type="line"/>
      <point x="869" y="-258" type="line"/>
      <point x="870" y="-14" type="line"/>
      <point x="1131" y="-1"/>
      <point x="1241" y="86"/>
      <point x="1321" y="91" type="curve"/>
      <point x="1321" y="750" type="line"/>
      <point x="842" y="750" type="line"/>
      <point x="842" y="628" type="line"/>
      <point x="1158" y="617" type="line"/>
      <point x="1158" y="181" type="line"/>
      <point x="1100" y="152"/>
      <point x="963" y="114"/>
      <point x="800" y="114" type="curve" smooth="yes"/>
      <point x="470" y="114"/>
      <point x="286" y="390"/>
      <point x="286" y="770" type="curve" smooth="yes"/>
      <point x="286" y="1186"/>
      <point x="520" y="1405"/>
      <point x="805" y="1405" type="curve" smooth="yes"/>
      <point x="1017" y="1405"/>
      <point x="1144" y="1365"/>
      <point x="1228" y="1325" type="curve"/>
      <point x="1235" y="1477" type="line"/>
      <point x="1131" y="1498"/>
      <point x="1053" y="1528"/>
      <point x="886" y="1536" type="curve"/>
      <point x="886" y="1762" type="line"/>
      <point x="727" y="1762" type="line"/>
      <point x="727" y="1533" type="line"/>
      <point x="376" y="1496"/>
      <point x="110" y="1230"/>
    </contour>
  </outline>
</glyph>
<glyph name="integral" format="1">
  <advance width="1042"/>
  <unicode hex="222B"/>
  <outline>
    <contour>
      <point x="421" y="-518" type="curve" smooth="yes"/>
      <point x="711" y="-518"/>
      <point x="827" y="-311"/>
      <point x="827" y="-31" type="curve" smooth="yes"/>
      <point x="827" y="393"/>
      <point x="402" y="807"/>
      <point x="402" y="1207" type="curve" smooth="yes"/>
      <point x="402" y="1418"/>
      <point x="484" y="1559"/>
      <point x="670" y="1559" type="curve" smooth="yes"/>
      <point x="786" y="1559"/>
      <point x="858" y="1507"/>
      <point x="882" y="1466" type="curve"/>
      <point x="969" y="1552" type="line"/>
      <point x="910" y="1651"/>
      <point x="789" y="1684"/>
      <point x="673" y="1684" type="curve" smooth="yes"/>
      <point x="391" y="1684"/>
      <point x="248" y="1486"/>
      <point x="248" y="1208" type="curve" smooth="yes"/>
      <point x="248" y="787"/>
      <point x="675" y="369"/>
      <point x="675" y="-32" type="curve" smooth="yes"/>
      <point x="675" y="-309"/>
      <point x="563" y="-393"/>
      <point x="401" y="-393" type="curve" smooth="yes"/>
      <point x="268" y="-393"/>
      <point x="191" y="-320"/>
      <point x="165" y="-287" type="curve"/>
      <point x="101" y="-389" type="line"/>
      <point x="156" y="-468"/>
      <point x="291" y="-518"/>
    </contour>
  </outline>
</glyph>
<glyph name="dieresis.cap" format="1">
  <advance width="805"/>
  <outline>
    <contour>
      <point x="154" y="1690" type="curve" smooth="yes"/>
      <point x="219" y="1690"/>
      <point x="275" y="1736"/>
      <point x="275" y="1813" type="curve" smooth="yes"/>
      <point x="275" y="1878"/>
      <point x="242" y="1922"/>
      <point x="171" y="1922" type="curve" smooth="yes"/>
      <point x="109" y="1922"/>
      <point x="50" y="1872"/>
      <point x="50" y="1798" type="curve" smooth="yes"/>
      <point x="50" y="1728"/>
      <point x="97" y="1690"/>
    </contour>
    <contour>
      <point x="634" y="1690" type="curve" smooth="yes"/>
      <point x="698" y="1690"/>
      <point x="755" y="1736"/>
      <point x="755" y="1813" type="curve" smooth="yes"/>
      <point x="755" y="1878"/>
      <point x="722" y="1922"/>
      <point x="650" y="1922" type="curve" smooth="yes"/>
      <point x="589" y="1922"/>
      <point x="529" y="1872"/>
      <point x="529" y="1798" type="curve" smooth="yes"/>
      <point x="529" y="1728"/>
      <point x="576" y="1690"/>
    </contour>
    <contour>
      <point x="402" y="1700" type="move" name="_top"/>
    </contour>
  </outline>
</glyph>
<glyph name="ij_acutecomb" format="1">
  <advance width="1150"/>
  <outline>
    <contour>
      <point x="211" y="0" type="line"/>
      <point x="377" y="0" type="line"/>
      <point x="377" y="1139" type="line"/>
      <point x="211" y="1139" type="line"/>
    </contour>
    <contour>
      <point x="258" y="1315" type="line"/>
      <point x="346" y="1372"/>
      <point x="561" y="1577"/>
      <point x="629" y="1678" type="curve"/>
      <point x="509" y="1781" type="line"/>
      <point x="406" y="1639"/>
      <point x="291" y="1513"/>
      <point x="172" y="1383" type="curve"/>
    </contour>
    <contour>
      <point x="493" y="-494" type="line"/>
      <point x="508" y="-502"/>
      <point x="590" y="-507"/>
      <point x="626" y="-507" type="curve" smooth="yes"/>
      <point x="853" y="-507"/>
      <point x="965" y="-349"/>
      <point x="965" y="23" type="curve" smooth="yes"/>
      <point x="965" y="1139" type="line"/>
      <point x="799" y="1139" type="line"/>
      <point x="799" y="-41" type="line" smooth="yes"/>
      <point x="799" y="-285"/>
      <point x="743" y="-389"/>
      <point x="609" y="-389" type="curve" smooth="yes"/>
      <point x="570" y="-389"/>
      <point x="514" y="-379"/>
      <point x="493" y="-370" type="curve"/>
    </contour>
    <component base="acute" xOffset="724"/>
  </outline>
</glyph>
